<?xml version="1.0" encoding="utf-8"?>
<!-- Generator: Adobe Illustrator 18.1.1, SVG Export Plug-In . SVG Version: 6.00 Build 0)  -->
<svg version="1.1" id="Layer_1" xmlns="http://www.w3.org/2000/svg" xmlns:xlink="http://www.w3.org/1999/xlink" x="0px" y="0px"
	 viewBox="-65 157 480 480" enable-background="new -65 157 480 480" xml:space="preserve">
<path fill="#FFFFFF" d="M175,157C42.5,157-65,264.5-65,397S42.5,637,175,637s240-107.5,240-240C414.9,264.5,307.5,157.1,175,157z
	 M175,621C51.3,621-49,520.7-49,397S51.3,173,175,173s224,100.3,224,224C398.9,520.7,298.7,620.9,175,621z"/>
<path fill="#FFFFFF" d="M279,253H71c-22.1,0-40,17.9-40,40v208c0,22.1,17.9,40,40,40h208c22.1,0,40-17.9,40-40V293
	C319,270.9,301.1,253,279,253z M303,501c0,13.3-10.7,24-24,24H71c-13.3,0-24-10.7-24-24V293c0-13.3,10.7-24,24-24h208
	c13.3,0,24,10.7,24,24V501z"/>
<path fill="#FFFFFF" d="M175,317c-44.2,0-80,35.8-80,80s35.8,80,80,80s80-35.8,80-80C255,352.8,219.2,317,175,317z M175,461
	c-35.3,0-64-28.7-64-64s28.7-64,64-64s64,28.7,64,64C239,432.3,210.3,461,175,461z"/>
<path fill="#F9F9F9" d="M263,285c-13.3,0-24,10.7-24,24s10.7,24,24,24s24-10.7,24-24S276.3,285,263,285z M263,317c-4.4,0-8-3.6-8-8
	s3.6-8,8-8s8,3.6,8,8S267.4,317,263,317z"/>
</svg>
